<?xml version="1.0" encoding="utf-8"?>
<!-- Generator: Adobe Illustrator 19.1.0, SVG Export Plug-In . SVG Version: 6.00 Build 0)  -->
<svg version="1.0" id="Layer_1" xmlns="http://www.w3.org/2000/svg" xmlns:xlink="http://www.w3.org/1999/xlink" x="0px" y="0px"
	 width="479px" height="479px" viewBox="0 0 479 479" style="enable-background:new 0 0 479 479;" xml:space="preserve">
<style type="text/css">
	.st0{fill:#FFFFFF;}
</style>
<g>
	<path class="st0" d="M337,479H142C63.6,479,0,415.4,0,337V142C0,63.6,63.6,0,142,0h195c78.4,0,142,63.6,142,142v195
		C479,415.4,415.4,479,337,479z"/>
	<path d="M337,479.5H142C63.4,479.5-0.5,415.6-0.5,337V142C-0.5,63.4,63.4-0.5,142-0.5h195c78.6,0,142.5,63.9,142.5,142.5v195
		C479.5,415.6,415.6,479.5,337,479.5z M142,0.5C64,0.5,0.5,64,0.5,142v195C0.5,415,64,478.5,142,478.5h195
		c78,0,141.5-63.5,141.5-141.5V142C478.5,64,415,0.5,337,0.5H142z"/>
</g>
</svg>
